<?xml version="1.0" encoding="utf-8"?>
<!-- Svg Vector Icons : http://www.onlinewebfonts.com/icon -->
<!DOCTYPE svg PUBLIC "-//W3C//DTD SVG 1.1//EN" "http://www.w3.org/Graphics/SVG/1.1/DTD/svg11.dtd">
<svg version="1.1" xmlns="http://www.w3.org/2000/svg" xmlns:xlink="http://www.w3.org/1999/xlink" x="0px" y="0px" viewBox="0 0 1000 1000" enable-background="new 0 0 1000 1000" xml:space="preserve">
<metadata> Svg Vector Icons : http://www.onlinewebfonts.com/icon </metadata>
<g><g transform="translate(0.000000,511.000000) scale(0.100000,-0.100000)"><path d="M4635.2,5001.8C2919.6,4840.2,1508.6,3924.1,690.7,2443.6c-787.3-1427.3-787.3-3224.7-2-4668.4c756.6-1390.5,2081.7-2302.5,3691-2537.7c241.3-36.8,983.6-36.8,1237.1-2c1100.1,153.4,2087.8,640,2852.6,1404.8c770.9,770.9,1249.4,1744.3,1404.8,2852.6c34.8,253.6,34.8,995.9-2.1,1237.1c-114.5,789.3-372.1,1470.3-789.3,2096c-918.2,1376.2-2482.5,2204.4-4120.4,2183.9C4821.3,5009.9,4674.1,5003.8,4635.2,5001.8z M5414.3,4337.2c987.7-100.2,1905.8-533.7,2597-1222.8c687.1-689.1,1124.7-1617.5,1224.9-2597C9360.9-730,8902.9-2008,8011.3-2901.6c-893.6-891.5-2171.6-1349.6-3419-1224.9c-1685,169.7-3102,1306.7-3625.5,2903.7C476,274.1,833.8,1869,1925.8,3048.9c67.5,69.5,208.6,202.4,317,292.4C3140.4,4093.9,4285.6,4453.7,5414.3,4337.2z"/><path d="M4839.7,2678.8c-36.8-26.6-87.9-73.6-110.4-104.3c-42.9-57.3-42.9-79.8-49.1-1098.1l-6.1-1040.8l-1040.8-6.1c-1018.3-6.1-1040.8-6.1-1098.1-49.1c-200.4-149.3-200.4-398.7,0-548c57.3-42.9,79.8-42.9,1098.1-49.1l1040.8-6.2l6.1-1040.8c6.1-1018.3,6.1-1040.8,49.1-1098.1c149.3-200.4,398.8-200.4,548,0c42.9,57.3,42.9,79.8,49.1,1098.1l6.2,1040.8l1040.8,6.2c1018.3,6.1,1040.8,6.1,1098.1,49.1c98.1,71.6,149.3,167.7,149.3,274c0,106.3-51.1,202.4-149.3,274c-57.3,42.9-79.8,42.9-1098.1,49.1l-1040.8,6.1l-6.2,1040.8c-6.1,1018.3-6.1,1040.8-49.1,1098.1c-71.6,98.1-167.7,149.3-274,149.3C4937.9,2723.8,4886.8,2709.5,4839.7,2678.8z"/></g></g>
</svg>